# xmcd CD database file
#
# Track frame offsets:
#	150
#	16444
#	29769
#	46799
#	60712
#	80270
#	96994
#	114780
#	130294
#	150227
#	164990
#	185842
#	208377
#	225979
#
# Disc length: 3239 seconds
#
# Revision: 1
# Processed by: cddbd v1.5.2PL0 Copyright (c) Steve Scherf et al.
# Submitted via: CDex 1.51
#
DISCID=bb0ca50e
DTITLE=Ike Turner - Risin' With The Blues
DYEAR=2006
DGENRE=Soul
TTITLE0=Gimme Back My Wig
TTITLE1=Caldonia
TTITLE2=Tease Me
TTITLE3=Goin' Home Tomorow
TTITLE4=Jazzy Fuzzy
TTITLE5=I Don't Want Nobody
TTITLE6=Jesus Loves Me
TTITLE7=A Love Like Yours
TTITLE8=Senor Blues
TTITLE9=Eighteen Long Years
TTITLE10=Rockin' Blues
TTITLE11=After Hours
TTITLE12=Big Fat Mama
TTITLE13=Bi Polar
EXTD=YEAR: 2006
EXTT0=
EXTT1=
EXTT2=
EXTT3=
EXTT4=
EXTT5=
EXTT6=
EXTT7=
EXTT8=
EXTT9=
EXTT10=
EXTT11=
EXTT12=
EXTT13=
PLAYORDER=
